<svg width="311" height="389" viewBox="0 0 311 389" fill="none" xmlns="http://www.w3.org/2000/svg">
<g filter="url(#filter0_b_62_10848)">
<rect width="311" height="389" rx="20" fill="url(#paint0_linear_62_10848)" fill-opacity="0.3"/>
<path d="M32.3096 46V33.1152H36.4844C38.0664 33.1152 39.0977 33.1797 39.5781 33.3086C40.3164 33.502 40.9346 33.9238 41.4326 34.5742C41.9307 35.2187 42.1797 36.0537 42.1797 37.0791C42.1797 37.8701 42.0361 38.5352 41.749 39.0742C41.4619 39.6133 41.0957 40.0381 40.6504 40.3486C40.2109 40.6533 39.7627 40.8555 39.3057 40.9551C38.6846 41.0781 37.7852 41.1396 36.6074 41.1396H34.9111V46H32.3096ZM34.9111 35.2949V38.9512H36.335C37.3604 38.9512 38.0459 38.8838 38.3916 38.749C38.7373 38.6143 39.0068 38.4033 39.2002 38.1162C39.3994 37.8291 39.499 37.4951 39.499 37.1143C39.499 36.6455 39.3613 36.2588 39.0859 35.9541C38.8105 35.6494 38.4619 35.459 38.04 35.3828C37.7295 35.3242 37.1055 35.2949 36.168 35.2949H34.9111ZM46.6621 46H44.1924V36.666H46.4863V37.9932C46.8789 37.3662 47.2305 36.9531 47.541 36.7539C47.8574 36.5547 48.2148 36.4551 48.6133 36.4551C49.1758 36.4551 49.7178 36.6104 50.2393 36.9209L49.4746 39.0742C49.0586 38.8047 48.6719 38.6699 48.3145 38.6699C47.9688 38.6699 47.6758 38.7666 47.4355 38.96C47.1953 39.1475 47.0049 39.4902 46.8643 39.9883C46.7295 40.4863 46.6621 41.5293 46.6621 43.1172V46ZM50.7402 41.2012C50.7402 40.3809 50.9424 39.5869 51.3467 38.8193C51.751 38.0518 52.3223 37.4658 53.0605 37.0615C53.8047 36.6572 54.6338 36.4551 55.5479 36.4551C56.96 36.4551 58.1172 36.915 59.0195 37.835C59.9219 38.749 60.373 39.9062 60.373 41.3066C60.373 42.7187 59.916 43.8906 59.002 44.8223C58.0938 45.748 56.9482 46.2109 55.5654 46.2109C54.71 46.2109 53.8926 46.0176 53.1133 45.6309C52.3398 45.2441 51.751 44.6787 51.3467 43.9346C50.9424 43.1846 50.7402 42.2734 50.7402 41.2012ZM53.2715 41.333C53.2715 42.2588 53.4912 42.9678 53.9307 43.46C54.3701 43.9521 54.9121 44.1982 55.5566 44.1982C56.2012 44.1982 56.7402 43.9521 57.1738 43.46C57.6133 42.9678 57.833 42.2529 57.833 41.3154C57.833 40.4014 57.6133 39.6982 57.1738 39.2061C56.7402 38.7139 56.2012 38.4678 55.5566 38.4678C54.9121 38.4678 54.3701 38.7139 53.9307 39.2061C53.4912 39.6982 53.2715 40.4072 53.2715 41.333ZM66.5957 36.666V38.6348H64.9082V42.3965C64.9082 43.1582 64.9229 43.6035 64.9522 43.7324C64.9873 43.8555 65.0606 43.958 65.1719 44.04C65.2891 44.1221 65.4297 44.1631 65.5938 44.1631C65.8223 44.1631 66.1533 44.084 66.5869 43.9258L66.7979 45.8418C66.2236 46.0879 65.5732 46.2109 64.8467 46.2109C64.4014 46.2109 64 46.1377 63.6426 45.9912C63.2852 45.8389 63.0215 45.6455 62.8516 45.4111C62.6875 45.1709 62.5732 44.8486 62.5088 44.4443C62.4561 44.1572 62.4297 43.5771 62.4297 42.7041V38.6348H61.2959V36.666H62.4297V34.8115L64.9082 33.3701V36.666H66.5957ZM67.7383 41.2012C67.7383 40.3809 67.9404 39.5869 68.3447 38.8193C68.749 38.0518 69.3203 37.4658 70.0586 37.0615C70.8027 36.6572 71.6318 36.4551 72.5459 36.4551C73.958 36.4551 75.1152 36.915 76.0176 37.835C76.9199 38.749 77.3711 39.9062 77.3711 41.3066C77.3711 42.7187 76.9141 43.8906 76 44.8223C75.0918 45.748 73.9463 46.2109 72.5635 46.2109C71.708 46.2109 70.8906 46.0176 70.1113 45.6309C69.3379 45.2441 68.749 44.6787 68.3447 43.9346C67.9404 43.1846 67.7383 42.2734 67.7383 41.2012ZM70.2695 41.333C70.2695 42.2588 70.4893 42.9678 70.9287 43.46C71.3682 43.9521 71.9102 44.1982 72.5547 44.1982C73.1992 44.1982 73.7383 43.9521 74.1719 43.46C74.6113 42.9678 74.8311 42.2529 74.8311 41.3154C74.8311 40.4014 74.6113 39.6982 74.1719 39.2061C73.7383 38.7139 73.1992 38.4678 72.5547 38.4678C71.9102 38.4678 71.3682 38.7139 70.9287 39.2061C70.4893 39.6982 70.2695 40.4072 70.2695 41.333ZM87.4522 39.4258L85.0176 39.8652C84.9356 39.3789 84.7481 39.0127 84.4551 38.7666C84.168 38.5205 83.793 38.3975 83.3301 38.3975C82.7148 38.3975 82.2227 38.6113 81.8535 39.0391C81.4902 39.4609 81.3086 40.1699 81.3086 41.166C81.3086 42.2734 81.4932 43.0557 81.8623 43.5127C82.2373 43.9697 82.7383 44.1982 83.3652 44.1982C83.834 44.1982 84.2178 44.0664 84.5166 43.8027C84.8154 43.5332 85.0264 43.0732 85.1494 42.4229L87.5752 42.8359C87.3232 43.9492 86.8398 44.79 86.125 45.3584C85.4102 45.9268 84.4522 46.2109 83.251 46.2109C81.8857 46.2109 80.7959 45.7803 79.9814 44.9189C79.1729 44.0576 78.7686 42.8652 78.7686 41.3418C78.7686 39.8008 79.1758 38.6025 79.9902 37.7471C80.8047 36.8857 81.9063 36.4551 83.2949 36.4551C84.4316 36.4551 85.334 36.7012 86.002 37.1934C86.6758 37.6797 87.1592 38.4238 87.4522 39.4258ZM88.7617 41.2012C88.7617 40.3809 88.9639 39.5869 89.3682 38.8193C89.7725 38.0518 90.3438 37.4658 91.082 37.0615C91.8262 36.6572 92.6553 36.4551 93.5693 36.4551C94.9814 36.4551 96.1387 36.915 97.041 37.835C97.9434 38.749 98.3945 39.9062 98.3945 41.3066C98.3945 42.7187 97.9375 43.8906 97.0234 44.8223C96.1152 45.748 94.9697 46.2109 93.5869 46.2109C92.7314 46.2109 91.9141 46.0176 91.1348 45.6309C90.3613 45.2441 89.7725 44.6787 89.3682 43.9346C88.9639 43.1846 88.7617 42.2734 88.7617 41.2012ZM91.293 41.333C91.293 42.2588 91.5127 42.9678 91.9522 43.46C92.3916 43.9521 92.9336 44.1982 93.5781 44.1982C94.2227 44.1982 94.7617 43.9521 95.1953 43.46C95.6348 42.9678 95.8545 42.2529 95.8545 41.3154C95.8545 40.4014 95.6348 39.6982 95.1953 39.2061C94.7617 38.7139 94.2227 38.4678 93.5781 38.4678C92.9336 38.4678 92.3916 38.7139 91.9522 39.2061C91.5127 39.6982 91.293 40.4072 91.293 41.333ZM100.337 46V33.1152H102.807V46H100.337ZM110.383 46V33.1152H112.984V38.1865H118.082V33.1152H120.684V46H118.082V40.3662H112.984V46H110.383ZM128.77 43.0293L131.23 43.4424C130.914 44.3447 130.413 45.0332 129.728 45.5078C129.048 45.9766 128.195 46.2109 127.17 46.2109C125.547 46.2109 124.346 45.6807 123.566 44.6201C122.951 43.7705 122.644 42.6982 122.644 41.4033C122.644 39.8564 123.048 38.6465 123.856 37.7734C124.665 36.8945 125.688 36.4551 126.924 36.4551C128.313 36.4551 129.408 36.915 130.211 37.835C131.014 38.749 131.397 40.1523 131.362 42.0449H125.175C125.192 42.7773 125.392 43.3486 125.772 43.7588C126.153 44.1631 126.628 44.3652 127.196 44.3652C127.583 44.3652 127.908 44.2598 128.172 44.0488C128.436 43.8379 128.635 43.498 128.77 43.0293ZM128.91 40.5332C128.893 39.8184 128.708 39.2764 128.356 38.9072C128.005 38.5322 127.577 38.3447 127.073 38.3447C126.534 38.3447 126.089 38.541 125.737 38.9336C125.386 39.3262 125.213 39.8594 125.219 40.5332H128.91ZM135.23 39.5137L132.988 39.1094C133.24 38.207 133.674 37.5391 134.289 37.1055C134.904 36.6719 135.818 36.4551 137.031 36.4551C138.133 36.4551 138.953 36.5869 139.492 36.8506C140.031 37.1084 140.409 37.4395 140.626 37.8437C140.849 38.2422 140.96 38.9775 140.96 40.0498L140.934 42.9326C140.934 43.7529 140.972 44.3594 141.048 44.752C141.13 45.1387 141.279 45.5547 141.496 46H139.053C138.988 45.8359 138.909 45.5928 138.815 45.2705C138.774 45.124 138.745 45.0273 138.728 44.9805C138.306 45.3906 137.855 45.6982 137.374 45.9033C136.894 46.1084 136.381 46.2109 135.836 46.2109C134.875 46.2109 134.116 45.9502 133.56 45.4287C133.009 44.9072 132.733 44.248 132.733 43.4512C132.733 42.9238 132.859 42.4551 133.111 42.0449C133.363 41.6289 133.715 41.3125 134.166 41.0957C134.623 40.873 135.279 40.6797 136.135 40.5156C137.289 40.2988 138.089 40.0967 138.534 39.9092V39.6631C138.534 39.1885 138.417 38.8516 138.183 38.6523C137.948 38.4473 137.506 38.3447 136.855 38.3447C136.416 38.3447 136.073 38.4326 135.827 38.6084C135.581 38.7783 135.382 39.0801 135.23 39.5137ZM138.534 41.5176C138.218 41.623 137.717 41.749 137.031 41.8955C136.346 42.042 135.897 42.1855 135.687 42.3262C135.364 42.5547 135.203 42.8447 135.203 43.1963C135.203 43.542 135.332 43.8408 135.59 44.0928C135.848 44.3447 136.176 44.4707 136.574 44.4707C137.02 44.4707 137.444 44.3242 137.849 44.0312C138.147 43.8086 138.344 43.5361 138.438 43.2139C138.502 43.0029 138.534 42.6016 138.534 42.0098V41.5176ZM143.403 46V33.1152H145.873V46H143.403ZM152.693 36.666V38.6348H151.006V42.3965C151.006 43.1582 151.021 43.6035 151.05 43.7324C151.085 43.8555 151.158 43.958 151.27 44.04C151.387 44.1221 151.527 44.1631 151.691 44.1631C151.92 44.1631 152.251 44.084 152.685 43.9258L152.896 45.8418C152.321 46.0879 151.671 46.2109 150.944 46.2109C150.499 46.2109 150.098 46.1377 149.74 45.9912C149.383 45.8389 149.119 45.6455 148.949 45.4111C148.785 45.1709 148.671 44.8486 148.606 44.4443C148.554 44.1572 148.527 43.5771 148.527 42.7041V38.6348H147.394V36.666H148.527V34.8115L151.006 33.3701V36.666H152.693ZM156.868 33.1152V37.8525C157.665 36.9209 158.617 36.4551 159.725 36.4551C160.293 36.4551 160.806 36.5605 161.263 36.7715C161.72 36.9824 162.063 37.252 162.291 37.5801C162.525 37.9082 162.684 38.2715 162.766 38.6699C162.854 39.0684 162.897 39.6865 162.897 40.5244V46H160.428V41.0693C160.428 40.0908 160.381 39.4697 160.287 39.2061C160.193 38.9424 160.026 38.7344 159.786 38.582C159.552 38.4238 159.256 38.3447 158.898 38.3447C158.488 38.3447 158.122 38.4443 157.8 38.6436C157.478 38.8428 157.24 39.1445 157.088 39.5488C156.941 39.9473 156.868 40.5391 156.868 41.3242V46H154.398V33.1152H156.868ZM169.779 41.8076L172.311 41.5615C172.463 42.4111 172.771 43.0352 173.233 43.4336C173.702 43.832 174.332 44.0312 175.123 44.0312C175.961 44.0312 176.591 43.8555 177.013 43.5039C177.44 43.1465 177.654 42.7305 177.654 42.2559C177.654 41.9512 177.563 41.6934 177.382 41.4824C177.206 41.2656 176.896 41.0781 176.45 40.9199C176.146 40.8145 175.451 40.627 174.367 40.3574C172.973 40.0117 171.994 39.5869 171.432 39.083C170.641 38.374 170.245 37.5098 170.245 36.4902C170.245 35.834 170.43 35.2217 170.799 34.6533C171.174 34.0791 171.71 33.6426 172.407 33.3437C173.11 33.0449 173.957 32.8955 174.947 32.8955C176.564 32.8955 177.78 33.25 178.595 33.959C179.415 34.668 179.846 35.6143 179.887 36.7979L177.285 36.9121C177.174 36.25 176.934 35.7754 176.564 35.4883C176.201 35.1953 175.653 35.0488 174.921 35.0488C174.165 35.0488 173.573 35.2041 173.146 35.5146C172.87 35.7139 172.732 35.9805 172.732 36.3145C172.732 36.6191 172.861 36.8799 173.119 37.0967C173.447 37.3721 174.244 37.6592 175.51 37.958C176.775 38.2568 177.71 38.5674 178.313 38.8896C178.923 39.2061 179.397 39.6426 179.737 40.1992C180.083 40.75 180.256 41.4326 180.256 42.2471C180.256 42.9854 180.051 43.6768 179.641 44.3213C179.23 44.9658 178.65 45.4463 177.9 45.7627C177.15 46.0732 176.216 46.2285 175.097 46.2285C173.468 46.2285 172.217 45.8535 171.344 45.1035C170.471 44.3477 169.949 43.249 169.779 41.8076ZM190.565 39.4258L188.131 39.8652C188.049 39.3789 187.861 39.0127 187.568 38.7666C187.281 38.5205 186.906 38.3975 186.443 38.3975C185.828 38.3975 185.336 38.6113 184.967 39.0391C184.604 39.4609 184.422 40.1699 184.422 41.166C184.422 42.2734 184.606 43.0557 184.976 43.5127C185.351 43.9697 185.852 44.1982 186.479 44.1982C186.947 44.1982 187.331 44.0664 187.63 43.8027C187.929 43.5332 188.14 43.0732 188.263 42.4229L190.688 42.8359C190.437 43.9492 189.953 44.79 189.238 45.3584C188.523 45.9268 187.565 46.2109 186.364 46.2109C184.999 46.2109 183.909 45.7803 183.095 44.9189C182.286 44.0576 181.882 42.8652 181.882 41.3418C181.882 39.8008 182.289 38.6025 183.104 37.7471C183.918 36.8857 185.02 36.4551 186.408 36.4551C187.545 36.4551 188.447 36.7012 189.115 37.1934C189.789 37.6797 190.272 38.4238 190.565 39.4258ZM191.875 41.2012C191.875 40.3809 192.077 39.5869 192.481 38.8193C192.886 38.0518 193.457 37.4658 194.195 37.0615C194.939 36.6572 195.769 36.4551 196.683 36.4551C198.095 36.4551 199.252 36.915 200.154 37.835C201.057 38.749 201.508 39.9062 201.508 41.3066C201.508 42.7187 201.051 43.8906 200.137 44.8223C199.229 45.748 198.083 46.2109 196.7 46.2109C195.845 46.2109 195.027 46.0176 194.248 45.6309C193.475 45.2441 192.886 44.6787 192.481 43.9346C192.077 43.1846 191.875 42.2734 191.875 41.2012ZM194.406 41.333C194.406 42.2588 194.626 42.9678 195.065 43.46C195.505 43.9521 196.047 44.1982 196.691 44.1982C197.336 44.1982 197.875 43.9521 198.309 43.46C198.748 42.9678 198.968 42.2529 198.968 41.3154C198.968 40.4014 198.748 39.6982 198.309 39.2061C197.875 38.7139 197.336 38.4678 196.691 38.4678C196.047 38.4678 195.505 38.7139 195.065 39.2061C194.626 39.6982 194.406 40.4072 194.406 41.333ZM205.814 46H203.345V36.666H205.639V37.9932C206.031 37.3662 206.383 36.9531 206.693 36.7539C207.01 36.5547 207.367 36.4551 207.766 36.4551C208.328 36.4551 208.87 36.6104 209.392 36.9209L208.627 39.0742C208.211 38.8047 207.824 38.6699 207.467 38.6699C207.121 38.6699 206.828 38.7666 206.588 38.96C206.348 39.1475 206.157 39.4902 206.017 39.9883C205.882 40.4863 205.814 41.5293 205.814 43.1172V46ZM215.869 43.0293L218.33 43.4424C218.014 44.3447 217.513 45.0332 216.827 45.5078C216.147 45.9766 215.295 46.2109 214.27 46.2109C212.647 46.2109 211.445 45.6807 210.666 44.6201C210.051 43.7705 209.743 42.6982 209.743 41.4033C209.743 39.8564 210.147 38.6465 210.956 37.7734C211.765 36.8945 212.787 36.4551 214.023 36.4551C215.412 36.4551 216.508 36.915 217.311 37.835C218.113 38.749 218.497 40.1523 218.462 42.0449H212.274C212.292 42.7773 212.491 43.3486 212.872 43.7588C213.253 44.1631 213.728 44.3652 214.296 44.3652C214.683 44.3652 215.008 44.2598 215.272 44.0488C215.535 43.8379 215.734 43.498 215.869 43.0293ZM216.01 40.5332C215.992 39.8184 215.808 39.2764 215.456 38.9072C215.105 38.5322 214.677 38.3447 214.173 38.3447C213.634 38.3447 213.188 38.541 212.837 38.9336C212.485 39.3262 212.313 39.8594 212.318 40.5332H216.01Z" fill="white"/>
<rect opacity="0.08" x="249" y="20" width="37" height="37" rx="12" fill="white"/>
<g clip-path="url(#clip0_62_10848)">
<path d="M261 37C259.9 37 259 37.9 259 39C259 40.1 259.9 41 261 41C262.1 41 263 40.1 263 39C263 37.9 262.1 37 261 37ZM273 37C271.9 37 271 37.9 271 39C271 40.1 271.9 41 273 41C274.1 41 275 40.1 275 39C275 37.9 274.1 37 273 37ZM267 37C265.9 37 265 37.9 265 39C265 40.1 265.9 41 267 41C268.1 41 269 40.1 269 39C269 37.9 268.1 37 267 37Z" fill="#7551FF"/>
</g>
<path d="M231.877 162.148C235.111 160.496 236.412 156.524 234.558 153.402C226.276 139.458 214.801 127.639 201.041 118.94C185.425 109.067 167.44 103.576 148.973 103.043C130.505 102.51 112.234 106.953 96.0745 115.909C79.9147 124.864 66.461 138.001 57.1235 153.943C47.7859 169.885 42.9081 188.045 43.0013 206.52C43.0945 224.995 48.1553 243.105 57.6533 258.951C67.1513 274.798 80.7368 287.799 96.9861 296.59C111.304 304.337 127.226 308.565 143.438 308.968C147.068 309.058 149.897 305.981 149.756 302.353C149.614 298.724 146.555 295.923 142.926 295.799C129.074 295.325 115.486 291.65 103.243 285.026C89.068 277.357 77.2168 266.016 68.9313 252.192C60.6458 238.368 56.2311 222.57 56.1498 206.453C56.0684 190.337 60.3235 174.495 68.4691 160.588C76.6147 146.681 88.3509 135.221 102.448 127.409C116.545 119.597 132.483 115.721 148.593 116.186C164.703 116.651 180.392 121.441 194.014 130.053C205.781 137.492 215.631 147.546 222.821 159.397C224.704 162.501 228.643 163.799 231.877 162.148Z" fill="url(#paint1_linear_62_10848)"/>
<path d="M113.271 213.724L119.911 212.991C120.074 214.342 120.497 215.343 121.181 215.994C121.864 216.645 122.768 216.971 123.891 216.971C125.307 216.971 126.511 216.32 127.504 215.018C128.497 213.715 129.132 211.014 129.408 206.912C127.683 208.914 125.526 209.915 122.938 209.915C120.123 209.915 117.689 208.833 115.639 206.668C113.604 204.487 112.587 201.655 112.587 198.172C112.587 194.542 113.661 191.621 115.81 189.407C117.974 187.177 120.725 186.062 124.062 186.062C127.691 186.062 130.67 187.47 132.997 190.286C135.325 193.086 136.488 197.7 136.488 204.129C136.488 210.672 135.276 215.392 132.851 218.289C130.425 221.186 127.268 222.635 123.378 222.635C120.578 222.635 118.316 221.894 116.591 220.413C114.866 218.916 113.759 216.686 113.271 213.724ZM128.798 198.733C128.798 196.52 128.285 194.803 127.26 193.582C126.251 192.361 125.079 191.751 123.744 191.751C122.475 191.751 121.417 192.256 120.57 193.265C119.74 194.257 119.325 195.893 119.325 198.172C119.325 200.483 119.781 202.184 120.692 203.274C121.604 204.349 122.743 204.886 124.11 204.886C125.429 204.886 126.535 204.365 127.431 203.323C128.342 202.282 128.798 200.752 128.798 198.733ZM142.421 222V215.14H149.281V222H142.421ZM154.628 212.503L161.269 211.697C161.48 213.39 162.05 214.684 162.978 215.579C163.905 216.474 165.028 216.922 166.347 216.922C167.763 216.922 168.951 216.385 169.911 215.311C170.888 214.236 171.376 212.788 171.376 210.965C171.376 209.24 170.912 207.872 169.984 206.863C169.057 205.854 167.925 205.35 166.591 205.35C165.712 205.35 164.662 205.521 163.441 205.862L164.198 200.271C166.054 200.32 167.47 199.922 168.446 199.075C169.423 198.213 169.911 197.073 169.911 195.657C169.911 194.453 169.553 193.493 168.837 192.776C168.121 192.06 167.169 191.702 165.98 191.702C164.809 191.702 163.808 192.109 162.978 192.923C162.147 193.737 161.643 194.925 161.464 196.487L155.141 195.413C155.58 193.248 156.239 191.523 157.118 190.237C158.013 188.935 159.25 187.918 160.829 187.186C162.424 186.437 164.206 186.062 166.176 186.062C169.545 186.062 172.247 187.137 174.281 189.285C175.958 191.043 176.796 193.029 176.796 195.242C176.796 198.383 175.079 200.89 171.645 202.762C173.695 203.201 175.331 204.186 176.552 205.716C177.789 207.246 178.407 209.093 178.407 211.258C178.407 214.399 177.26 217.076 174.965 219.29C172.67 221.504 169.813 222.61 166.396 222.61C163.157 222.61 160.471 221.683 158.339 219.827C156.207 217.955 154.97 215.514 154.628 212.503Z" fill="white"/>
<path d="M127.629 169.78L128.88 169.671C128.939 170.172 129.076 170.585 129.29 170.908C129.509 171.227 129.846 171.487 130.302 171.688C130.757 171.883 131.27 171.981 131.84 171.981C132.346 171.981 132.792 171.906 133.18 171.756C133.567 171.605 133.854 171.4 134.041 171.141C134.232 170.876 134.328 170.589 134.328 170.279C134.328 169.965 134.237 169.691 134.055 169.459C133.872 169.222 133.572 169.024 133.152 168.864C132.883 168.759 132.289 168.598 131.368 168.379C130.448 168.156 129.803 167.946 129.434 167.75C128.955 167.499 128.597 167.189 128.36 166.82C128.128 166.447 128.012 166.03 128.012 165.569C128.012 165.063 128.155 164.592 128.442 164.154C128.729 163.712 129.149 163.377 129.7 163.149C130.252 162.922 130.865 162.808 131.539 162.808C132.282 162.808 132.936 162.928 133.501 163.17C134.071 163.407 134.508 163.758 134.813 164.223C135.119 164.688 135.283 165.214 135.306 165.802L134.034 165.897C133.966 165.264 133.733 164.785 133.337 164.462C132.945 164.138 132.364 163.977 131.594 163.977C130.792 163.977 130.206 164.125 129.837 164.421C129.472 164.713 129.29 165.066 129.29 165.48C129.29 165.84 129.42 166.137 129.68 166.369C129.935 166.602 130.6 166.841 131.676 167.087C132.756 167.328 133.496 167.54 133.897 167.723C134.481 167.992 134.911 168.333 135.189 168.748C135.467 169.158 135.606 169.632 135.606 170.17C135.606 170.703 135.454 171.207 135.148 171.681C134.843 172.15 134.403 172.517 133.829 172.781C133.259 173.041 132.617 173.171 131.901 173.171C130.994 173.171 130.233 173.039 129.618 172.774C129.007 172.51 128.527 172.114 128.176 171.585C127.829 171.052 127.647 170.45 127.629 169.78ZM141.998 172.104C141.542 172.492 141.103 172.765 140.679 172.925C140.259 173.084 139.808 173.164 139.325 173.164C138.528 173.164 137.915 172.97 137.486 172.583C137.058 172.191 136.844 171.692 136.844 171.086C136.844 170.73 136.924 170.407 137.083 170.115C137.247 169.819 137.459 169.582 137.719 169.404C137.983 169.227 138.279 169.092 138.607 169.001C138.849 168.937 139.214 168.876 139.701 168.816C140.695 168.698 141.426 168.557 141.896 168.393C141.9 168.224 141.902 168.117 141.902 168.071C141.902 167.57 141.786 167.217 141.554 167.012C141.239 166.734 140.772 166.595 140.152 166.595C139.574 166.595 139.145 166.697 138.867 166.902C138.594 167.103 138.391 167.461 138.259 167.976L137.056 167.812C137.165 167.297 137.345 166.882 137.596 166.567C137.846 166.248 138.209 166.005 138.683 165.836C139.157 165.663 139.706 165.576 140.33 165.576C140.95 165.576 141.453 165.649 141.841 165.795C142.228 165.941 142.513 166.125 142.695 166.349C142.878 166.567 143.005 166.845 143.078 167.183C143.119 167.392 143.14 167.771 143.14 168.317V169.958C143.14 171.102 143.165 171.826 143.215 172.132C143.27 172.433 143.374 172.722 143.529 173H142.244C142.117 172.745 142.035 172.446 141.998 172.104ZM141.896 169.356C141.449 169.539 140.779 169.694 139.886 169.821C139.38 169.894 139.022 169.976 138.812 170.067C138.603 170.159 138.441 170.293 138.327 170.471C138.213 170.644 138.156 170.838 138.156 171.052C138.156 171.38 138.279 171.653 138.525 171.872C138.776 172.091 139.141 172.2 139.619 172.2C140.093 172.2 140.515 172.098 140.884 171.893C141.253 171.683 141.524 171.398 141.697 171.038C141.829 170.76 141.896 170.35 141.896 169.808V169.356ZM145.348 173V166.697H144.261V165.74H145.348V164.968C145.348 164.48 145.391 164.118 145.478 163.881C145.596 163.562 145.803 163.304 146.1 163.108C146.4 162.908 146.82 162.808 147.357 162.808C147.704 162.808 148.087 162.849 148.506 162.931L148.321 164.004C148.066 163.958 147.825 163.936 147.597 163.936C147.223 163.936 146.959 164.015 146.804 164.175C146.649 164.334 146.571 164.633 146.571 165.07V165.74H147.986V166.697H146.571V173H145.348ZM153.92 170.662L155.191 170.819C154.991 171.562 154.619 172.139 154.077 172.549C153.535 172.959 152.842 173.164 151.999 173.164C150.937 173.164 150.094 172.838 149.47 172.187C148.85 171.53 148.54 170.612 148.54 169.432C148.54 168.21 148.854 167.262 149.483 166.588C150.112 165.913 150.928 165.576 151.931 165.576C152.901 165.576 153.694 165.907 154.31 166.567C154.925 167.228 155.232 168.158 155.232 169.356C155.232 169.429 155.23 169.539 155.226 169.685H149.812C149.857 170.482 150.083 171.093 150.488 171.517C150.894 171.94 151.4 172.152 152.006 172.152C152.457 172.152 152.842 172.034 153.161 171.797C153.48 171.56 153.733 171.182 153.92 170.662ZM149.88 168.673H153.934C153.879 168.062 153.724 167.604 153.469 167.299C153.077 166.825 152.569 166.588 151.944 166.588C151.379 166.588 150.903 166.777 150.516 167.155C150.133 167.534 149.921 168.039 149.88 168.673ZM159.43 171.899L159.607 172.986C159.261 173.059 158.951 173.096 158.678 173.096C158.231 173.096 157.885 173.025 157.639 172.884C157.393 172.743 157.219 172.558 157.119 172.33C157.019 172.098 156.969 171.612 156.969 170.874V166.697H156.066V165.74H156.969V163.942L158.192 163.204V165.74H159.43V166.697H158.192V170.942C158.192 171.293 158.213 171.519 158.254 171.619C158.299 171.719 158.37 171.799 158.466 171.858C158.566 171.918 158.707 171.947 158.89 171.947C159.026 171.947 159.206 171.931 159.43 171.899ZM160.585 175.796L160.448 174.641C160.717 174.714 160.952 174.75 161.152 174.75C161.426 174.75 161.645 174.704 161.809 174.613C161.973 174.522 162.107 174.395 162.212 174.23C162.289 174.107 162.415 173.802 162.588 173.314C162.611 173.246 162.647 173.146 162.697 173.014L159.942 165.74H161.269L162.779 169.944C162.975 170.478 163.151 171.038 163.306 171.626C163.447 171.061 163.616 170.509 163.812 169.972L165.363 165.74H166.594L163.832 173.123C163.536 173.921 163.306 174.47 163.142 174.771C162.923 175.176 162.672 175.472 162.39 175.659C162.107 175.851 161.77 175.946 161.378 175.946C161.141 175.946 160.877 175.896 160.585 175.796Z" fill="#A0AEC0"/>
<path d="M114.63 248V239.161H111.328V237.979H119.271V239.161H115.956V248H114.63ZM118.465 244.37C118.465 243.026 118.839 242.03 119.586 241.383C120.21 240.845 120.971 240.576 121.869 240.576C122.867 240.576 123.683 240.904 124.316 241.561C124.95 242.212 125.267 243.115 125.267 244.268C125.267 245.202 125.125 245.938 124.843 246.476C124.565 247.009 124.157 247.424 123.619 247.72C123.086 248.016 122.503 248.164 121.869 248.164C120.853 248.164 120.03 247.838 119.401 247.187C118.777 246.535 118.465 245.596 118.465 244.37ZM119.729 244.37C119.729 245.3 119.932 245.997 120.338 246.462C120.743 246.922 121.254 247.152 121.869 247.152C122.48 247.152 122.988 246.92 123.394 246.455C123.799 245.99 124.002 245.282 124.002 244.329C124.002 243.431 123.797 242.752 123.387 242.292C122.981 241.827 122.475 241.595 121.869 241.595C121.254 241.595 120.743 241.825 120.338 242.285C119.932 242.745 119.729 243.44 119.729 244.37ZM129.402 246.899L129.58 247.986C129.234 248.059 128.924 248.096 128.65 248.096C128.204 248.096 127.857 248.025 127.611 247.884C127.365 247.743 127.192 247.558 127.092 247.33C126.992 247.098 126.941 246.612 126.941 245.874V241.697H126.039V240.74H126.941V238.942L128.165 238.204V240.74H129.402V241.697H128.165V245.942C128.165 246.293 128.186 246.519 128.227 246.619C128.272 246.719 128.343 246.799 128.438 246.858C128.539 246.918 128.68 246.947 128.862 246.947C128.999 246.947 129.179 246.931 129.402 246.899ZM135.35 247.104C134.894 247.492 134.454 247.765 134.03 247.925C133.611 248.084 133.16 248.164 132.677 248.164C131.879 248.164 131.266 247.97 130.838 247.583C130.41 247.191 130.195 246.692 130.195 246.086C130.195 245.73 130.275 245.407 130.435 245.115C130.599 244.819 130.811 244.582 131.07 244.404C131.335 244.227 131.631 244.092 131.959 244.001C132.201 243.937 132.565 243.876 133.053 243.816C134.046 243.698 134.778 243.557 135.247 243.393C135.252 243.224 135.254 243.117 135.254 243.071C135.254 242.57 135.138 242.217 134.905 242.012C134.591 241.734 134.124 241.595 133.504 241.595C132.925 241.595 132.497 241.697 132.219 241.902C131.945 242.103 131.743 242.461 131.61 242.976L130.407 242.812C130.517 242.297 130.697 241.882 130.947 241.567C131.198 241.248 131.56 241.005 132.034 240.836C132.508 240.663 133.057 240.576 133.682 240.576C134.301 240.576 134.805 240.649 135.192 240.795C135.58 240.941 135.865 241.125 136.047 241.349C136.229 241.567 136.357 241.845 136.43 242.183C136.471 242.392 136.491 242.771 136.491 243.317V244.958C136.491 246.102 136.516 246.826 136.566 247.132C136.621 247.433 136.726 247.722 136.881 248H135.596C135.468 247.745 135.386 247.446 135.35 247.104ZM135.247 244.356C134.8 244.539 134.131 244.694 133.237 244.821C132.731 244.894 132.374 244.976 132.164 245.067C131.954 245.159 131.793 245.293 131.679 245.471C131.565 245.644 131.508 245.838 131.508 246.052C131.508 246.38 131.631 246.653 131.877 246.872C132.128 247.091 132.492 247.2 132.971 247.2C133.445 247.2 133.866 247.098 134.235 246.893C134.604 246.683 134.876 246.398 135.049 246.038C135.181 245.76 135.247 245.35 135.247 244.808V244.356ZM138.378 248V237.979H139.608V248H138.378ZM145.125 244.78L146.376 244.671C146.435 245.172 146.572 245.585 146.786 245.908C147.005 246.227 147.342 246.487 147.798 246.688C148.254 246.883 148.766 246.981 149.336 246.981C149.842 246.981 150.288 246.906 150.676 246.756C151.063 246.605 151.35 246.4 151.537 246.141C151.729 245.876 151.824 245.589 151.824 245.279C151.824 244.965 151.733 244.691 151.551 244.459C151.368 244.222 151.068 244.024 150.648 243.864C150.38 243.759 149.785 243.598 148.864 243.379C147.944 243.156 147.299 242.946 146.93 242.75C146.451 242.499 146.093 242.189 145.856 241.82C145.624 241.447 145.508 241.03 145.508 240.569C145.508 240.063 145.651 239.592 145.938 239.154C146.226 238.712 146.645 238.377 147.196 238.149C147.748 237.922 148.361 237.808 149.035 237.808C149.778 237.808 150.432 237.928 150.997 238.17C151.567 238.407 152.004 238.758 152.31 239.223C152.615 239.688 152.779 240.214 152.802 240.802L151.53 240.897C151.462 240.264 151.229 239.785 150.833 239.462C150.441 239.138 149.86 238.977 149.09 238.977C148.288 238.977 147.702 239.125 147.333 239.421C146.968 239.713 146.786 240.066 146.786 240.48C146.786 240.84 146.916 241.137 147.176 241.369C147.431 241.602 148.096 241.841 149.172 242.087C150.252 242.328 150.993 242.54 151.394 242.723C151.977 242.992 152.408 243.333 152.686 243.748C152.964 244.158 153.103 244.632 153.103 245.17C153.103 245.703 152.95 246.207 152.645 246.681C152.339 247.15 151.899 247.517 151.325 247.781C150.756 248.041 150.113 248.171 149.397 248.171C148.491 248.171 147.729 248.039 147.114 247.774C146.504 247.51 146.023 247.114 145.672 246.585C145.326 246.052 145.143 245.45 145.125 244.78ZM159.494 245.341L160.704 245.498C160.572 246.332 160.232 246.986 159.686 247.46C159.143 247.929 158.476 248.164 157.683 248.164C156.689 248.164 155.889 247.84 155.283 247.193C154.682 246.542 154.381 245.61 154.381 244.397C154.381 243.614 154.511 242.928 154.771 242.34C155.03 241.752 155.424 241.312 155.953 241.021C156.486 240.724 157.065 240.576 157.689 240.576C158.478 240.576 159.123 240.777 159.624 241.178C160.125 241.574 160.447 242.139 160.588 242.873L159.392 243.058C159.278 242.57 159.075 242.203 158.783 241.957C158.496 241.711 158.147 241.588 157.737 241.588C157.118 241.588 156.614 241.811 156.227 242.258C155.839 242.7 155.646 243.402 155.646 244.363C155.646 245.339 155.832 246.047 156.206 246.489C156.58 246.931 157.067 247.152 157.669 247.152C158.152 247.152 158.555 247.004 158.879 246.708C159.202 246.412 159.408 245.956 159.494 245.341ZM161.299 244.37C161.299 243.026 161.673 242.03 162.42 241.383C163.044 240.845 163.805 240.576 164.703 240.576C165.701 240.576 166.517 240.904 167.15 241.561C167.784 242.212 168.101 243.115 168.101 244.268C168.101 245.202 167.959 245.938 167.677 246.476C167.399 247.009 166.991 247.424 166.453 247.72C165.92 248.016 165.337 248.164 164.703 248.164C163.687 248.164 162.864 247.838 162.235 247.187C161.611 246.535 161.299 245.596 161.299 244.37ZM162.563 244.37C162.563 245.3 162.766 245.997 163.172 246.462C163.577 246.922 164.088 247.152 164.703 247.152C165.314 247.152 165.822 246.92 166.228 246.455C166.633 245.99 166.836 245.282 166.836 244.329C166.836 243.431 166.631 242.752 166.221 242.292C165.815 241.827 165.309 241.595 164.703 241.595C164.088 241.595 163.577 241.825 163.172 242.285C162.766 242.745 162.563 243.44 162.563 244.37ZM169.536 248V240.74H170.644V241.841C170.926 241.326 171.186 240.986 171.423 240.822C171.664 240.658 171.929 240.576 172.216 240.576C172.631 240.576 173.052 240.708 173.48 240.973L173.057 242.114C172.756 241.937 172.455 241.848 172.154 241.848C171.885 241.848 171.644 241.93 171.43 242.094C171.215 242.253 171.063 242.477 170.972 242.764C170.835 243.201 170.767 243.68 170.767 244.199V248H169.536ZM179.182 245.662L180.453 245.819C180.253 246.562 179.881 247.139 179.339 247.549C178.797 247.959 178.104 248.164 177.261 248.164C176.199 248.164 175.356 247.838 174.731 247.187C174.112 246.53 173.802 245.612 173.802 244.432C173.802 243.21 174.116 242.262 174.745 241.588C175.374 240.913 176.19 240.576 177.192 240.576C178.163 240.576 178.956 240.907 179.571 241.567C180.187 242.228 180.494 243.158 180.494 244.356C180.494 244.429 180.492 244.539 180.487 244.685H175.073C175.119 245.482 175.344 246.093 175.75 246.517C176.156 246.94 176.661 247.152 177.268 247.152C177.719 247.152 178.104 247.034 178.423 246.797C178.742 246.56 178.995 246.182 179.182 245.662ZM175.142 243.673H179.195C179.141 243.062 178.986 242.604 178.73 242.299C178.339 241.825 177.83 241.588 177.206 241.588C176.641 241.588 176.165 241.777 175.777 242.155C175.395 242.534 175.183 243.039 175.142 243.673Z" fill="#A0AEC0"/>
</g>
<defs>
<filter id="filter0_b_62_10848" x="-200" y="-200" width="711" height="789" filterUnits="userSpaceOnUse" color-interpolation-filters="sRGB">
<feFlood flood-opacity="0" result="BackgroundImageFix"/>
<feGaussianBlur in="BackgroundImageFix" stdDeviation="100"/>
<feComposite in2="SourceAlpha" operator="in" result="effect1_backgroundBlur_62_10848"/>
<feBlend mode="normal" in="SourceGraphic" in2="effect1_backgroundBlur_62_10848" result="shape"/>
</filter>
<linearGradient id="paint0_linear_62_10848" x1="155.5" y1="-2.43124" x2="407.364" y2="149.166" gradientUnits="userSpaceOnUse">
<stop stop-color="#3546E0" stop-opacity="0.2"/>
<stop stop-color="#3546E0" stop-opacity="0.2"/>
<stop offset="0.0001" stop-color="#3546E0" stop-opacity="0.2"/>
<stop offset="1" stop-color="#0E153A" stop-opacity="0.71"/>
</linearGradient>
<linearGradient id="paint1_linear_62_10848" x1="146" y1="103" x2="146" y2="293" gradientUnits="userSpaceOnUse">
<stop stop-color="#B341B1"/>
<stop offset="1" stop-color="#3585E0" stop-opacity="0"/>
</linearGradient>
<clipPath id="clip0_62_10848">
<rect width="24" height="24" fill="white" transform="translate(255 27)"/>
</clipPath>
</defs>
</svg>
