<svg width="22" height="22" viewBox="0 0 22 22" fill="none" xmlns="http://www.w3.org/2000/svg">
<path d="M11 13.5049C12.6569 13.5049 14 12.2129 14 10.6191C14 9.02539 12.6569 7.7334 11 7.7334C9.34315 7.7334 8 9.02539 8 10.6191C8 12.2129 9.34315 13.5049 11 13.5049Z" stroke="white" stroke-width="2" stroke-linecap="round" stroke-linejoin="round"/>
<path d="M17.7273 13.2425C17.6063 13.5063 17.5702 13.7989 17.6236 14.0825C17.6771 14.3662 17.8177 14.628 18.0273 14.8341L18.0818 14.8865C18.2509 15.049 18.385 15.2419 18.4765 15.4542C18.568 15.6665 18.6151 15.8941 18.6151 16.1239C18.6151 16.3538 18.568 16.5813 18.4765 16.7937C18.385 17.006 18.2509 17.1989 18.0818 17.3613C17.913 17.5239 17.7124 17.6529 17.4917 17.7409C17.271 17.8289 17.0344 17.8742 16.7955 17.8742C16.5565 17.8742 16.3199 17.8289 16.0992 17.7409C15.8785 17.6529 15.678 17.5239 15.5091 17.3613L15.4545 17.3088C15.2403 17.1072 14.9682 16.972 14.6733 16.9205C14.3784 16.8691 14.0742 16.9038 13.8 17.0202C13.5311 17.1311 13.3018 17.3152 13.1403 17.5498C12.9788 17.7844 12.8921 18.0593 12.8909 18.3407V18.4893C12.8909 18.9532 12.6994 19.398 12.3584 19.726C12.0174 20.054 11.5549 20.2383 11.0727 20.2383C10.5905 20.2383 10.1281 20.054 9.78708 19.726C9.4461 19.398 9.25455 18.9532 9.25455 18.4893V18.4106C9.24751 18.1212 9.15011 17.8405 8.97501 17.605C8.79991 17.3695 8.55521 17.1901 8.27273 17.0902C7.99853 16.9738 7.69437 16.9391 7.39947 16.9905C7.10456 17.0419 6.83244 17.1772 6.61818 17.3788L6.56364 17.4312C6.39478 17.5939 6.19425 17.7229 5.97353 17.8109C5.7528 17.8989 5.51621 17.9442 5.27727 17.9442C5.03834 17.9442 4.80174 17.8989 4.58102 17.8109C4.36029 17.7229 4.15977 17.5939 3.99091 17.4312C3.82186 17.2688 3.68775 17.0759 3.59626 16.8636C3.50476 16.6513 3.45766 16.4237 3.45766 16.1939C3.45766 15.964 3.50476 15.7365 3.59626 15.5241C3.68775 15.3118 3.82186 15.1189 3.99091 14.9565L4.04545 14.904C4.25503 14.6979 4.39562 14.4362 4.4491 14.1525C4.50257 13.8688 4.46647 13.5763 4.34545 13.3125C4.23022 13.0539 4.03887 12.8333 3.79497 12.6779C3.55107 12.5225 3.26526 12.4392 2.97273 12.438H2.81818C2.33597 12.438 1.87351 12.2538 1.53253 11.9258C1.19156 11.5978 1 11.1529 1 10.6891C1 10.2253 1.19156 9.7804 1.53253 9.45241C1.87351 9.12443 2.33597 8.94016 2.81818 8.94016H2.9C3.2009 8.93339 3.49273 8.8397 3.73754 8.67127C3.98236 8.50284 4.16883 8.26747 4.27273 7.99574C4.39374 7.73199 4.42984 7.43941 4.37637 7.15574C4.3229 6.87206 4.18231 6.6103 3.97273 6.40421L3.91818 6.35174C3.74913 6.18931 3.61503 5.99642 3.52353 5.78411C3.43203 5.57179 3.38493 5.34421 3.38493 5.11437C3.38493 4.88453 3.43203 4.65695 3.52353 4.44463C3.61503 4.23231 3.74913 4.03943 3.91818 3.877C4.08704 3.71439 4.28757 3.58539 4.50829 3.49737C4.72901 3.40936 4.96561 3.36406 5.20455 3.36406C5.44348 3.36406 5.68008 3.40936 5.9008 3.49737C6.12152 3.58539 6.32205 3.71439 6.49091 3.877L6.54545 3.92947C6.75971 4.13106 7.03183 4.2663 7.32674 4.31773C7.62164 4.36917 7.9258 4.33444 8.2 4.21804H8.27273C8.54161 4.10719 8.77093 3.92313 8.93245 3.68852C9.09397 3.45391 9.18065 3.17899 9.18182 2.89759V2.74893C9.18182 2.28509 9.37338 1.84024 9.71435 1.51225C10.0553 1.18426 10.5178 1 11 1C11.4822 1 11.9447 1.18426 12.2856 1.51225C12.6266 1.84024 12.8182 2.28509 12.8182 2.74893V2.82764C12.8193 3.10903 12.906 3.38395 13.0676 3.61856C13.2291 3.85317 13.4584 4.03723 13.7273 4.14808C14.0015 4.26449 14.3056 4.29921 14.6005 4.24778C14.8954 4.19634 15.1676 4.06111 15.3818 3.85951L15.4364 3.80704C15.6052 3.64443 15.8057 3.51543 16.0265 3.42742C16.2472 3.3394 16.4838 3.2941 16.7227 3.2941C16.9617 3.2941 17.1983 3.3394 17.419 3.42742C17.6397 3.51543 17.8402 3.64443 18.0091 3.80704C18.1781 3.96947 18.3122 4.16236 18.4037 4.37467C18.4952 4.58699 18.5423 4.81457 18.5423 5.04441C18.5423 5.27425 18.4952 5.50183 18.4037 5.71415C18.3122 5.92647 18.1781 6.11935 18.0091 6.28178L17.9545 6.33425C17.745 6.54034 17.6044 6.8021 17.5509 7.08578C17.4974 7.36945 17.5335 7.66203 17.6545 7.92578V7.99574C17.7698 8.25438 17.9611 8.47496 18.205 8.63033C18.4489 8.78571 18.7347 8.86908 19.0273 8.87021H19.1818C19.664 8.87021 20.1265 9.05447 20.4675 9.38246C20.8084 9.71045 21 10.1553 21 10.6191C21 11.083 20.8084 11.5278 20.4675 11.8558C20.1265 12.1838 19.664 12.3681 19.1818 12.3681H19.1C18.8075 12.3692 18.5217 12.4526 18.2778 12.6079C18.0339 12.7633 17.8425 12.9839 17.7273 13.2425Z" stroke="white" stroke-width="2" stroke-linecap="round" stroke-linejoin="round"/>
</svg>
