<svg width="20" height="20" viewBox="0 0 20 20" fill="none" xmlns="http://www.w3.org/2000/svg">
<g id="IONIcon/N/notifications/default">
<path id="Vector" d="M17.1907 13.3321C17.1259 13.2539 17.0622 13.1758 16.9997 13.1004C16.1403 12.061 15.6204 11.4336 15.6204 8.49104C15.6204 6.9676 15.2559 5.7176 14.5376 4.7801C14.0079 4.08752 13.2919 3.56213 12.3481 3.17385C12.336 3.1671 12.3251 3.15823 12.3161 3.14768C11.9766 2.01096 11.0477 1.24963 10.0001 1.24963C8.95242 1.24963 8.0239 2.01096 7.68445 3.14651C7.67539 3.15667 7.6647 3.16526 7.65281 3.1719C5.45046 4.07854 4.38015 5.81799 4.38015 8.48987C4.38015 11.4336 3.86101 12.061 3.00086 13.0992C2.93836 13.1746 2.87468 13.2512 2.80984 13.3309C2.64234 13.5329 2.53622 13.7786 2.50403 14.0391C2.47184 14.2995 2.51493 14.5637 2.6282 14.8004C2.86922 15.3082 3.38289 15.6235 3.96922 15.6235H16.0352C16.6188 15.6235 17.129 15.3086 17.3708 14.8031C17.4845 14.5664 17.528 14.302 17.4961 14.0412C17.4642 13.7805 17.3582 13.5344 17.1907 13.3321Z" fill="white"/>
<path id="Vector_2" d="M10 18.75C10.5645 18.7495 11.1183 18.5963 11.6027 18.3066C12.0872 18.0168 12.4841 17.6014 12.7516 17.1043C12.7642 17.0805 12.7704 17.0538 12.7696 17.0269C12.7689 16.9999 12.7612 16.9736 12.7473 16.9506C12.7333 16.9275 12.7137 16.9084 12.6902 16.8952C12.6667 16.8819 12.6402 16.875 12.6133 16.875H7.38751C7.36053 16.8749 7.33398 16.8818 7.31046 16.895C7.28693 16.9082 7.26723 16.9273 7.25326 16.9504C7.2393 16.9735 7.23155 16.9998 7.23078 17.0268C7.23 17.0537 7.23623 17.0804 7.24884 17.1043C7.51624 17.6013 7.91316 18.0167 8.39751 18.3065C8.88187 18.5962 9.43561 18.7495 10 18.75Z" fill="white"/>
</g>
</svg>
