<svg width="24" height="21" viewBox="0 0 24 21" fill="none" xmlns="http://www.w3.org/2000/svg">
<path d="M21.2632 19.9345V12.138M12 19.9345V8.79657M2.73684 19.9345L2.73684 15.4793M13.6288 3.25822L19.6133 5.41694M10.6091 3.67414L4.12658 8.35086M22.4913 4.83072C23.1696 5.48317 23.1696 6.54099 22.4913 7.19344C21.813 7.84588 20.7133 7.84588 20.035 7.19344C19.3567 6.54099 19.3567 5.48317 20.035 4.83072C20.7133 4.17827 21.813 4.17827 22.4913 4.83072ZM3.96498 8.17211C4.64325 8.82455 4.64325 9.88238 3.96498 10.5348C3.2867 11.1873 2.18699 11.1873 1.50871 10.5348C0.83043 9.88238 0.83043 8.82455 1.50871 8.17211C2.18699 7.51966 3.2867 7.51966 3.96498 8.17211ZM13.2281 1.48933C13.9064 2.14178 13.9064 3.19961 13.2281 3.85205C12.5499 4.5045 11.4501 4.5045 10.7719 3.85205C10.0936 3.19961 10.0936 2.14178 10.7719 1.48933C11.4501 0.836888 12.5499 0.836888 13.2281 1.48933Z" stroke="white" stroke-width="2" stroke-linecap="round" stroke-linejoin="round"/>
</svg>
