<svg width="24" height="24" viewBox="0 0 24 24" fill="none" xmlns="http://www.w3.org/2000/svg">
<g id="Dashboard Icon">
<path id="Vector" d="M24 7.76034V2.35667C24 0.678435 23.2392 0 21.3489 0H16.5459C14.6556 0 13.8948 0.678435 13.8948 2.35667V7.74844C13.8948 9.43858 14.6556 10.1051 16.5459 10.1051H21.3489C23.2392 10.117 24 9.43858 24 7.76034Z" fill="white"/>
<path id="Vector_2" d="M24 21.3489V16.5459C24 14.6556 23.2392 13.8948 21.3489 13.8948H16.5459C14.6556 13.8948 13.8948 14.6556 13.8948 16.5459V21.3489C13.8948 23.2392 14.6556 24 16.5459 24H21.3489C23.2392 24 24 23.2392 24 21.3489Z" fill="white"/>
<path id="Vector_3" d="M10.1053 7.76034V2.35667C10.1053 0.678435 9.3444 0 7.45412 0H2.65115C0.760867 0 0 0.678435 0 2.35667V7.74844C0 9.43858 0.760867 10.1051 2.65115 10.1051H7.45412C9.3444 10.117 10.1053 9.43858 10.1053 7.76034Z" fill="white"/>
<path id="Vector_4" d="M10.1053 21.3489V16.5459C10.1053 14.6556 9.3444 13.8948 7.45412 13.8948H2.65115C0.760867 13.8948 0 14.6556 0 16.5459V21.3489C0 23.2392 0.760867 24 2.65115 24H7.45412C9.3444 24 10.1053 23.2392 10.1053 21.3489Z" fill="white"/>
</g>
</svg>
