<svg width="335" height="40" viewBox="0 0 335 40" fill="none" xmlns="http://www.w3.org/2000/svg">
<g clip-path="url(#clip0_72_8257)">
<rect width="199" height="39.5" rx="15" fill="#181325"/>
<path d="M24.6294 24.5959L21.8729 21.8394C22.5365 20.9559 22.8948 19.8805 22.8936 18.7755C22.8936 15.953 20.5973 13.6567 17.7748 13.6567C14.9524 13.6567 12.6561 15.953 12.6561 18.7755C12.6561 21.5979 14.9524 23.8942 17.7748 23.8942C18.8798 23.8954 19.9552 23.5372 20.8387 22.8735L23.5952 25.6301C23.7348 25.7548 23.9168 25.8214 24.1038 25.8162C24.2909 25.8109 24.4689 25.7343 24.6012 25.6019C24.7336 25.4696 24.8102 25.2916 24.8155 25.1045C24.8207 24.9174 24.7541 24.7354 24.6294 24.5959ZM14.1186 18.7755C14.1186 18.0523 14.333 17.3455 14.7348 16.7442C15.1365 16.1429 15.7075 15.6743 16.3756 15.3976C17.0437 15.1208 17.7789 15.0484 18.4881 15.1895C19.1974 15.3306 19.8488 15.6788 20.3602 16.1901C20.8715 16.7015 21.2197 17.3529 21.3608 18.0622C21.5019 18.7714 21.4295 19.5066 21.1527 20.1747C20.876 20.8428 20.4074 21.4138 19.8061 21.8155C19.2049 22.2173 18.498 22.4317 17.7748 22.4317C16.8055 22.4306 15.8762 22.045 15.1907 21.3596C14.5053 20.6741 14.1197 19.7448 14.1186 18.7755Z" fill="#2D3748"/>
<g clip-path="url(#clip1_72_8257)">
<path d="M40.6113 23.7472V16.171H37.7813V15.1573H44.5898V16.171H41.748V23.7472H40.6113ZM44.9121 26.1437L44.7949 25.1534C45.0254 25.2159 45.2266 25.2472 45.3984 25.2472C45.6328 25.2472 45.8203 25.2081 45.9609 25.13C46.1016 25.0519 46.2168 24.9425 46.3066 24.8019C46.373 24.6964 46.4805 24.4347 46.6289 24.0167C46.6484 23.9581 46.6797 23.8722 46.7227 23.7589L44.3613 17.5245H45.498L46.793 21.1281C46.9609 21.5851 47.1113 22.0656 47.2441 22.5695C47.3652 22.0851 47.5098 21.6124 47.6777 21.1515L49.0078 17.5245H50.0625L47.6953 23.8527C47.4414 24.5363 47.2441 25.007 47.1035 25.2648C46.916 25.6124 46.7012 25.8663 46.459 26.0265C46.2168 26.1906 45.9277 26.2726 45.5918 26.2726C45.3887 26.2726 45.1621 26.2296 44.9121 26.1437ZM50.959 26.132V17.5245H51.9199V18.3331C52.1465 18.0167 52.4023 17.7804 52.6875 17.6241C52.9727 17.464 53.3184 17.3839 53.7246 17.3839C54.2559 17.3839 54.7246 17.5206 55.1309 17.7941C55.5371 18.0675 55.8438 18.4542 56.0508 18.9542C56.2578 19.4503 56.3613 19.9952 56.3613 20.589C56.3613 21.2257 56.2461 21.7999 56.0156 22.3116C55.7891 22.8195 55.457 23.2101 55.0195 23.4835C54.5859 23.7531 54.1289 23.8878 53.6484 23.8878C53.2969 23.8878 52.9805 23.8136 52.6992 23.6652C52.4219 23.5167 52.1934 23.3292 52.0137 23.1027V26.132H50.959ZM51.9141 20.671C51.9141 21.4718 52.0762 22.0636 52.4004 22.4464C52.7246 22.8292 53.1172 23.0206 53.5781 23.0206C54.0469 23.0206 54.4473 22.8234 54.7793 22.4288C55.1152 22.0304 55.2832 21.4152 55.2832 20.5831C55.2832 19.7902 55.1191 19.1964 54.791 18.8019C54.4668 18.4073 54.0781 18.2101 53.625 18.2101C53.1758 18.2101 52.7773 18.421 52.4297 18.8429C52.0859 19.2609 51.9141 19.8702 51.9141 20.671ZM61.8984 21.7433L62.9883 21.8781C62.8164 22.5148 62.498 23.0089 62.0332 23.3605C61.5684 23.712 60.9746 23.8878 60.252 23.8878C59.3418 23.8878 58.6191 23.6085 58.084 23.0499C57.5527 22.4874 57.2871 21.7003 57.2871 20.6886C57.2871 19.6417 57.5566 18.8292 58.0957 18.2511C58.6348 17.673 59.334 17.3839 60.1934 17.3839C61.0254 17.3839 61.7051 17.6671 62.2324 18.2335C62.7598 18.7999 63.0234 19.5968 63.0234 20.6241C63.0234 20.6866 63.0215 20.7804 63.0176 20.9054H58.377C58.416 21.589 58.6094 22.1124 58.957 22.4757C59.3047 22.839 59.7383 23.0206 60.2578 23.0206C60.6445 23.0206 60.9746 22.9191 61.248 22.7159C61.5215 22.5128 61.7383 22.1886 61.8984 21.7433ZM58.4355 20.0382H61.9102C61.8633 19.5148 61.7305 19.1222 61.5117 18.8605C61.1758 18.4542 60.7402 18.2511 60.2051 18.2511C59.7207 18.2511 59.3125 18.4132 58.9805 18.7374C58.6523 19.0616 58.4707 19.4952 58.4355 20.0382ZM67.6582 23.7472V15.1573H68.7129V18.2394C69.2051 17.6691 69.8262 17.3839 70.5762 17.3839C71.0371 17.3839 71.4375 17.4757 71.7773 17.6593C72.1172 17.839 72.3594 18.089 72.5039 18.4093C72.6523 18.7296 72.7266 19.1945 72.7266 19.8038V23.7472H71.6719V19.8038C71.6719 19.2765 71.5566 18.8937 71.3262 18.6554C71.0996 18.4132 70.7773 18.2921 70.3594 18.2921C70.0469 18.2921 69.752 18.3741 69.4746 18.5382C69.2012 18.6984 69.0059 18.9171 68.8887 19.1945C68.7715 19.4718 68.7129 19.8546 68.7129 20.3429V23.7472H67.6582ZM78.5977 21.7433L79.6875 21.8781C79.5156 22.5148 79.1973 23.0089 78.7324 23.3605C78.2676 23.712 77.6738 23.8878 76.9512 23.8878C76.041 23.8878 75.3184 23.6085 74.7832 23.0499C74.252 22.4874 73.9863 21.7003 73.9863 20.6886C73.9863 19.6417 74.2559 18.8292 74.7949 18.2511C75.334 17.673 76.0332 17.3839 76.8926 17.3839C77.7246 17.3839 78.4043 17.6671 78.9316 18.2335C79.459 18.7999 79.7227 19.5968 79.7227 20.6241C79.7227 20.6866 79.7207 20.7804 79.7168 20.9054H75.0762C75.1152 21.589 75.3086 22.1124 75.6563 22.4757C76.0039 22.839 76.4375 23.0206 76.957 23.0206C77.3438 23.0206 77.6738 22.9191 77.9473 22.7159C78.2207 22.5128 78.4375 22.1886 78.5977 21.7433ZM75.1348 20.0382H78.6094C78.5625 19.5148 78.4297 19.1222 78.2109 18.8605C77.875 18.4542 77.4395 18.2511 76.9043 18.2511C76.4199 18.2511 76.0117 18.4132 75.6797 18.7374C75.3516 19.0616 75.1699 19.4952 75.1348 20.0382ZM81.0059 23.7472V17.5245H81.9551V18.4679C82.1973 18.0265 82.4199 17.7355 82.6231 17.5948C82.8301 17.4542 83.0566 17.3839 83.3027 17.3839C83.6582 17.3839 84.0195 17.4972 84.3867 17.7238L84.0234 18.7023C83.7656 18.5499 83.5078 18.4738 83.25 18.4738C83.0195 18.4738 82.8125 18.5441 82.6289 18.6847C82.4453 18.8214 82.3145 19.0128 82.2363 19.2589C82.1191 19.6339 82.0606 20.0441 82.0606 20.4894V23.7472H81.0059ZM89.2734 21.7433L90.3633 21.8781C90.1914 22.5148 89.8731 23.0089 89.4082 23.3605C88.9434 23.712 88.3496 23.8878 87.627 23.8878C86.7168 23.8878 85.9941 23.6085 85.459 23.0499C84.9277 22.4874 84.6621 21.7003 84.6621 20.6886C84.6621 19.6417 84.9316 18.8292 85.4707 18.2511C86.0098 17.673 86.709 17.3839 87.5684 17.3839C88.4004 17.3839 89.0801 17.6671 89.6074 18.2335C90.1348 18.7999 90.3984 19.5968 90.3984 20.6241C90.3984 20.6866 90.3965 20.7804 90.3926 20.9054H85.752C85.791 21.589 85.9844 22.1124 86.332 22.4757C86.6797 22.839 87.1133 23.0206 87.6328 23.0206C88.0195 23.0206 88.3496 22.9191 88.6231 22.7159C88.8965 22.5128 89.1133 22.1886 89.2734 21.7433ZM85.8106 20.0382H89.2852C89.2383 19.5148 89.1055 19.1222 88.8867 18.8605C88.5508 18.4542 88.1152 18.2511 87.5801 18.2511C87.0957 18.2511 86.6875 18.4132 86.3555 18.7374C86.0273 19.0616 85.8457 19.4952 85.8106 20.0382ZM91.9922 23.7472V22.546H93.1934V23.7472H91.9922ZM95.332 23.7472V22.546H96.5332V23.7472H95.332ZM98.6719 23.7472V22.546H99.8731V23.7472H98.6719Z" fill="#8594AB"/>
</g>
</g>
<rect x="0.25" y="0.25" width="198.5" height="39" rx="14.75" stroke="#45366A" stroke-opacity="0.3" stroke-width="0.5"/>
<g clip-path="url(#clip2_72_8257)">
<path d="M224.796 15.0133C224.34 14.5209 223.703 14.2498 223 14.2498C222.293 14.2498 221.654 14.5193 221.2 15.0087C220.741 15.5034 220.517 16.1758 220.57 16.9019C220.674 18.3344 221.764 19.4998 223 19.4998C224.236 19.4998 225.324 18.3347 225.43 16.9024C225.483 16.1829 225.258 15.5119 224.796 15.0133Z" fill="#718096"/>
<path d="M227.125 24.7493H218.875C218.767 24.7507 218.66 24.728 218.562 24.6829C218.464 24.6377 218.377 24.5713 218.308 24.4884C218.155 24.3063 218.094 24.0576 218.139 23.8061C218.337 22.7088 218.955 21.787 219.925 21.1399C220.787 20.5654 221.879 20.2493 223 20.2493C224.121 20.2493 225.213 20.5657 226.075 21.1399C227.045 21.7868 227.663 22.7086 227.86 23.8059C227.906 24.0574 227.844 24.3061 227.692 24.4882C227.623 24.5711 227.536 24.6376 227.438 24.6828C227.34 24.7279 227.233 24.7506 227.125 24.7493Z" fill="#718096"/>
<path d="M233.879 23.5V14.9102H235.016V22.4863H239.246V23.5H233.879ZM240.078 20.3887C240.078 19.2363 240.398 18.3828 241.039 17.8281C241.574 17.3672 242.227 17.1367 242.996 17.1367C243.852 17.1367 244.551 17.418 245.094 17.9805C245.637 18.5391 245.908 19.3125 245.908 20.3008C245.908 21.1016 245.787 21.7324 245.545 22.1934C245.307 22.6504 244.957 23.0059 244.496 23.2598C244.039 23.5137 243.539 23.6406 242.996 23.6406C242.125 23.6406 241.42 23.3613 240.881 22.8027C240.346 22.2441 240.078 21.4395 240.078 20.3887ZM241.162 20.3887C241.162 21.1855 241.336 21.7832 241.684 22.1816C242.031 22.5762 242.469 22.7734 242.996 22.7734C243.52 22.7734 243.955 22.5742 244.303 22.1758C244.65 21.7773 244.824 21.1699 244.824 20.3535C244.824 19.584 244.648 19.002 244.297 18.6074C243.949 18.209 243.516 18.0098 242.996 18.0098C242.469 18.0098 242.031 18.207 241.684 18.6016C241.336 18.9961 241.162 19.5918 241.162 20.3887ZM246.957 24.0156L247.982 24.168C248.025 24.4844 248.145 24.7148 248.34 24.8594C248.602 25.0547 248.959 25.1523 249.412 25.1523C249.9 25.1523 250.277 25.0547 250.543 24.8594C250.809 24.6641 250.988 24.3906 251.082 24.0391C251.137 23.8242 251.162 23.373 251.158 22.6855C250.697 23.2285 250.123 23.5 249.436 23.5C248.58 23.5 247.918 23.1914 247.449 22.5742C246.98 21.957 246.746 21.2168 246.746 20.3535C246.746 19.7598 246.854 19.2129 247.068 18.7129C247.283 18.209 247.594 17.8203 248 17.5469C248.41 17.2734 248.891 17.1367 249.441 17.1367C250.176 17.1367 250.781 17.4336 251.258 18.0273V17.2773H252.23V22.6562C252.23 23.625 252.131 24.3105 251.932 24.7129C251.736 25.1191 251.424 25.4395 250.994 25.6738C250.568 25.9082 250.043 26.0254 249.418 26.0254C248.676 26.0254 248.076 25.8574 247.619 25.5215C247.162 25.1895 246.941 24.6875 246.957 24.0156ZM247.83 20.2773C247.83 21.0937 247.992 21.6895 248.316 22.0645C248.641 22.4395 249.047 22.627 249.535 22.627C250.02 22.627 250.426 22.4414 250.754 22.0703C251.082 21.6953 251.246 21.1094 251.246 20.3125C251.246 19.5508 251.076 18.9766 250.736 18.5898C250.4 18.2031 249.994 18.0098 249.518 18.0098C249.049 18.0098 248.65 18.2012 248.322 18.584C247.994 18.9629 247.83 19.5273 247.83 20.2773ZM256.959 19.3164C256.959 17.8906 257.342 16.7754 258.107 15.9707C258.873 15.1621 259.861 14.7578 261.072 14.7578C261.865 14.7578 262.58 14.9473 263.217 15.3262C263.854 15.7051 264.338 16.2344 264.67 16.9141C265.006 17.5898 265.174 18.3574 265.174 19.2168C265.174 20.0879 264.998 20.8672 264.646 21.5547C264.295 22.2422 263.797 22.7637 263.152 23.1191C262.508 23.4707 261.813 23.6465 261.066 23.6465C260.258 23.6465 259.535 23.4512 258.898 23.0605C258.262 22.6699 257.779 22.1367 257.451 21.4609C257.123 20.7852 256.959 20.0703 256.959 19.3164ZM258.131 19.334C258.131 20.3691 258.408 21.1855 258.963 21.7832C259.521 22.377 260.221 22.6738 261.061 22.6738C261.916 22.6738 262.619 22.373 263.17 21.7715C263.725 21.1699 264.002 20.3164 264.002 19.2109C264.002 18.5117 263.883 17.9023 263.645 17.3828C263.41 16.8594 263.064 16.4551 262.607 16.1699C262.154 15.8809 261.645 15.7363 261.078 15.7363C260.273 15.7363 259.58 16.0137 258.998 16.5684C258.42 17.1191 258.131 18.041 258.131 19.334ZM270.588 23.5V22.5859C270.104 23.2891 269.445 23.6406 268.613 23.6406C268.246 23.6406 267.902 23.5703 267.582 23.4297C267.266 23.2891 267.029 23.1133 266.873 22.9023C266.721 22.6875 266.613 22.4258 266.551 22.1172C266.508 21.9102 266.486 21.582 266.486 21.1328V17.2773H267.541V20.7285C267.541 21.2793 267.563 21.6504 267.605 21.8418C267.672 22.1191 267.813 22.3379 268.027 22.498C268.242 22.6543 268.508 22.7324 268.824 22.7324C269.141 22.7324 269.438 22.6523 269.715 22.4922C269.992 22.3281 270.188 22.1074 270.301 21.8301C270.418 21.5488 270.477 21.1426 270.477 20.6113V17.2773H271.531V23.5H270.588ZM275.492 22.5566L275.645 23.4883C275.348 23.5508 275.082 23.582 274.848 23.582C274.465 23.582 274.168 23.5215 273.957 23.4004C273.746 23.2793 273.598 23.1211 273.512 22.9258C273.426 22.7266 273.383 22.3105 273.383 21.6777V18.0977H272.609V17.2773H273.383V15.7363L274.432 15.1035V17.2773H275.492V18.0977H274.432V21.7363C274.432 22.0371 274.449 22.2305 274.484 22.3164C274.523 22.4023 274.584 22.4707 274.666 22.5215C274.752 22.5723 274.873 22.5977 275.029 22.5977C275.146 22.5977 275.301 22.584 275.492 22.5566Z" fill="#718096"/>
</g>
<g clip-path="url(#clip3_72_8257)">
<path d="M300 18.1251C299.629 18.1251 299.267 18.2351 298.958 18.4411C298.65 18.6471 298.41 18.94 298.268 19.2826C298.126 19.6252 298.089 20.0022 298.161 20.3659C298.233 20.7296 298.412 21.0637 298.674 21.3259C298.936 21.5882 299.27 21.7667 299.634 21.8391C299.998 21.9114 300.375 21.8743 300.718 21.7324C301.06 21.5905 301.353 21.3502 301.559 21.0418C301.765 20.7335 301.875 20.371 301.875 20.0001C301.873 19.5033 301.675 19.0272 301.324 18.6759C300.973 18.3246 300.497 18.1266 300 18.1251ZM304.048 20.0001C304.047 20.1753 304.034 20.3503 304.01 20.5237L305.151 21.4172C305.201 21.4582 305.234 21.5156 305.245 21.579C305.257 21.6425 305.245 21.7079 305.212 21.7636L304.133 23.6273C304.1 23.6825 304.049 23.7243 303.988 23.7454C303.928 23.7666 303.862 23.7657 303.802 23.7429L302.46 23.2038C302.18 23.4189 301.875 23.5975 301.55 23.7351L301.349 25.1596C301.338 25.2235 301.305 25.2814 301.256 25.3235C301.207 25.3657 301.144 25.3894 301.08 25.3907H298.92C298.857 25.3895 298.796 25.3667 298.747 25.3262C298.698 25.2856 298.664 25.2296 298.651 25.1674L298.45 23.7429C298.124 23.6068 297.818 23.428 297.54 23.2111L296.198 23.7501C296.138 23.7729 296.072 23.7739 296.012 23.7528C295.951 23.7317 295.9 23.6899 295.867 23.6348L294.787 21.7713C294.755 21.7156 294.743 21.6502 294.755 21.5868C294.766 21.5233 294.799 21.4659 294.849 21.4249L295.99 20.5314C295.966 20.3554 295.953 20.1779 295.952 20.0001C295.953 19.8249 295.966 19.65 295.99 19.4765L294.849 18.5831C294.799 18.542 294.766 18.4847 294.755 18.4212C294.743 18.3578 294.755 18.2923 294.787 18.2367L295.867 16.3729C295.9 16.3178 295.951 16.2759 296.012 16.2548C296.072 16.2337 296.138 16.2346 296.198 16.2574L297.54 16.7964C297.82 16.5813 298.125 16.4027 298.45 16.2651L298.651 14.8406C298.662 14.7768 298.695 14.7189 298.744 14.6767C298.793 14.6346 298.856 14.6108 298.92 14.6095H301.08C301.143 14.6107 301.204 14.6335 301.253 14.6741C301.302 14.7146 301.336 14.7706 301.349 14.8329L301.55 16.2574C301.876 16.3933 302.182 16.5722 302.461 16.7892L303.802 16.2501C303.862 16.2273 303.928 16.2263 303.988 16.2474C304.049 16.2685 304.1 16.3103 304.133 16.3654L305.212 18.2292C305.245 18.2848 305.257 18.3503 305.245 18.4137C305.234 18.4772 305.201 18.5345 305.151 18.5756L304.01 19.469C304.034 19.645 304.047 19.8224 304.048 20.0001Z" fill="#718096"/>
</g>
<path d="M333.314 21.9992C333.276 21.9523 333.237 21.9055 333.2 21.8602C332.684 21.2365 332.372 20.8601 332.372 19.0946C332.372 18.1805 332.154 17.4305 331.723 16.868C331.405 16.4525 330.975 16.1373 330.409 15.9043C330.402 15.9002 330.395 15.8949 330.39 15.8886C330.186 15.2066 329.629 14.7498 329 14.7498C328.371 14.7498 327.814 15.2066 327.611 15.8879C327.605 15.894 327.599 15.8991 327.592 15.9031C326.27 16.4471 325.628 17.4908 325.628 19.0939C325.628 20.8601 325.317 21.2365 324.801 21.8595C324.763 21.9048 324.725 21.9507 324.686 21.9985C324.585 22.1197 324.522 22.2672 324.502 22.4234C324.483 22.5797 324.509 22.7382 324.577 22.8802C324.722 23.1849 325.03 23.374 325.382 23.374H332.621C332.971 23.374 333.277 23.1851 333.422 22.8819C333.491 22.7398 333.517 22.5812 333.498 22.4247C333.479 22.2683 333.415 22.1206 333.314 21.9992Z" fill="#718096"/>
<path d="M329 25.25C329.339 25.2497 329.671 25.1578 329.962 24.9839C330.252 24.8101 330.49 24.5608 330.651 24.2626C330.658 24.2483 330.662 24.2323 330.662 24.2161C330.661 24.2 330.657 24.1842 330.648 24.1703C330.64 24.1565 330.628 24.145 330.614 24.1371C330.6 24.1292 330.584 24.125 330.568 24.125H327.432C327.416 24.1249 327.4 24.1291 327.386 24.137C327.372 24.1449 327.36 24.1564 327.352 24.1702C327.344 24.1841 327.339 24.1999 327.338 24.2161C327.338 24.2322 327.342 24.2483 327.349 24.2626C327.51 24.5608 327.748 24.81 328.038 24.9839C328.329 25.1577 328.661 25.2497 329 25.25Z" fill="#718096"/>
<defs>
<clipPath id="clip0_72_8257">
<rect width="199" height="39.5" rx="15" fill="white"/>
</clipPath>
<clipPath id="clip1_72_8257">
<rect width="148.006" height="18.0058" fill="white" transform="translate(37.5 10.7472)"/>
</clipPath>
<clipPath id="clip2_72_8257">
<rect width="58" height="16" fill="white" transform="translate(217 11.5)"/>
</clipPath>
<clipPath id="clip3_72_8257">
<rect width="12" height="12" fill="white" transform="translate(294 14)"/>
</clipPath>
</defs>
</svg>
