<svg width="346" height="73" viewBox="0 0 346 73" fill="none" xmlns="http://www.w3.org/2000/svg">
<rect width="346" height="52" rx="20" fill="#121428"/>
<path d="M20.5682 21.892V19.8636H30.125V21.892H26.5625V31.5H24.1307V21.892H20.5682ZM34.331 31.6705C33.4484 31.6705 32.6851 31.483 32.0412 31.108C31.401 30.7292 30.9067 30.2027 30.5582 29.5284C30.2098 28.8504 30.0355 28.0644 30.0355 27.1705C30.0355 26.2689 30.2098 25.4811 30.5582 24.8068C30.9067 24.1288 31.401 23.6023 32.0412 23.2273C32.6851 22.8485 33.4484 22.6591 34.331 22.6591C35.2135 22.6591 35.9749 22.8485 36.6151 23.2273C37.259 23.6023 37.7552 24.1288 38.1037 24.8068C38.4522 25.4811 38.6264 26.2689 38.6264 27.1705C38.6264 28.0644 38.4522 28.8504 38.1037 29.5284C37.7552 30.2027 37.259 30.7292 36.6151 31.108C35.9749 31.483 35.2135 31.6705 34.331 31.6705ZM34.3423 29.7955C34.7438 29.7955 35.0791 29.6818 35.348 29.4545C35.617 29.2235 35.8196 28.9091 35.956 28.5114C36.0961 28.1136 36.1662 27.661 36.1662 27.1534C36.1662 26.6458 36.0961 26.1932 35.956 25.7955C35.8196 25.3977 35.617 25.0833 35.348 24.8523C35.0791 24.6212 34.7438 24.5057 34.3423 24.5057C33.937 24.5057 33.5961 24.6212 33.3196 24.8523C33.0469 25.0833 32.8404 25.3977 32.7003 25.7955C32.5639 26.1932 32.4957 26.6458 32.4957 27.1534C32.4957 27.661 32.5639 28.1136 32.7003 28.5114C32.8404 28.9091 33.0469 29.2235 33.3196 29.4545C33.5961 29.6818 33.937 29.7955 34.3423 29.7955ZM44.8423 22.7727V24.5909H39.5866V22.7727H44.8423ZM40.7798 20.6818H43.2003V28.8182C43.2003 29.0417 43.2344 29.2159 43.3026 29.3409C43.3707 29.4621 43.4654 29.5473 43.5866 29.5966C43.7116 29.6458 43.8556 29.6705 44.0185 29.6705C44.1321 29.6705 44.2457 29.661 44.3594 29.642C44.473 29.6193 44.5601 29.6023 44.6207 29.5909L45.0014 31.392C44.8802 31.4299 44.7098 31.4735 44.4901 31.5227C44.2704 31.5758 44.0033 31.608 43.6889 31.6193C43.1056 31.642 42.5942 31.5644 42.1548 31.3864C41.7192 31.2083 41.3802 30.9318 41.1378 30.5568C40.8954 30.1818 40.776 29.7083 40.7798 29.1364V20.6818ZM48.9077 31.6648C48.3509 31.6648 47.8546 31.5682 47.419 31.375C46.9834 31.178 46.6387 30.8883 46.3849 30.5057C46.1349 30.1193 46.0099 29.6383 46.0099 29.0625C46.0099 28.5777 46.099 28.1705 46.277 27.8409C46.455 27.5114 46.6974 27.2462 47.0043 27.0455C47.3111 26.8447 47.6596 26.6932 48.0497 26.5909C48.4437 26.4886 48.8565 26.4167 49.2884 26.375C49.7959 26.322 50.205 26.2727 50.5156 26.2273C50.8262 26.178 51.0516 26.1061 51.1918 26.0114C51.3319 25.9167 51.402 25.7765 51.402 25.5909V25.5568C51.402 25.197 51.2884 24.9186 51.0611 24.7216C50.8376 24.5246 50.5194 24.4261 50.1065 24.4261C49.6709 24.4261 49.3243 24.5227 49.0668 24.7159C48.8092 24.9053 48.6387 25.1439 48.5554 25.4318L46.3168 25.25C46.4304 24.7197 46.6539 24.2614 46.9872 23.875C47.3205 23.4848 47.7505 23.1856 48.277 22.9773C48.8073 22.7652 49.4209 22.6591 50.1179 22.6591C50.6027 22.6591 51.0668 22.7159 51.5099 22.8295C51.9569 22.9432 52.3527 23.1193 52.6974 23.358C53.0459 23.5966 53.3205 23.9034 53.5213 24.2784C53.7221 24.6496 53.8224 25.0947 53.8224 25.6136V31.5H51.527V30.2898H51.4588C51.3187 30.5625 51.1312 30.803 50.8963 31.0114C50.6615 31.2159 50.3793 31.3769 50.0497 31.4943C49.7202 31.608 49.3395 31.6648 48.9077 31.6648ZM49.6009 29.9943C49.9569 29.9943 50.2713 29.9242 50.544 29.7841C50.8168 29.6402 51.0308 29.447 51.1861 29.2045C51.3414 28.9621 51.419 28.6875 51.419 28.3807V27.4545C51.3433 27.5038 51.2391 27.5492 51.1065 27.5909C50.9777 27.6288 50.8319 27.6648 50.669 27.6989C50.5062 27.7292 50.3433 27.7576 50.1804 27.7841C50.0175 27.8068 49.8698 27.8277 49.7372 27.8466C49.4531 27.8883 49.205 27.9545 48.9929 28.0455C48.7808 28.1364 48.616 28.2595 48.4986 28.4148C48.3812 28.5663 48.3224 28.7557 48.3224 28.983C48.3224 29.3125 48.4418 29.5644 48.6804 29.7386C48.9228 29.9091 49.2296 29.9943 49.6009 29.9943ZM58.1207 19.8636V31.5H55.7003V19.8636H58.1207ZM65.9105 19.8636L68.723 28.7045H68.831L71.6491 19.8636H74.3764L70.3651 31.5H67.1946L63.1776 19.8636H65.9105ZM77.2514 31.6648C76.6946 31.6648 76.1984 31.5682 75.7628 31.375C75.3272 31.178 74.9825 30.8883 74.7287 30.5057C74.4787 30.1193 74.3537 29.6383 74.3537 29.0625C74.3537 28.5777 74.4427 28.1705 74.6207 27.8409C74.7988 27.5114 75.0412 27.2462 75.348 27.0455C75.6548 26.8447 76.0033 26.6932 76.3935 26.5909C76.7874 26.4886 77.2003 26.4167 77.6321 26.375C78.1397 26.322 78.5488 26.2727 78.8594 26.2273C79.17 26.178 79.3954 26.1061 79.5355 26.0114C79.6757 25.9167 79.7457 25.7765 79.7457 25.5909V25.5568C79.7457 25.197 79.6321 24.9186 79.4048 24.7216C79.1813 24.5246 78.8632 24.4261 78.4503 24.4261C78.0147 24.4261 77.6681 24.5227 77.4105 24.7159C77.1529 24.9053 76.9825 25.1439 76.8991 25.4318L74.6605 25.25C74.7741 24.7197 74.9976 24.2614 75.331 23.875C75.6643 23.4848 76.0942 23.1856 76.6207 22.9773C77.151 22.7652 77.7647 22.6591 78.4616 22.6591C78.9465 22.6591 79.4105 22.7159 79.8537 22.8295C80.3007 22.9432 80.6965 23.1193 81.0412 23.358C81.3897 23.5966 81.6643 23.9034 81.8651 24.2784C82.0658 24.6496 82.1662 25.0947 82.1662 25.6136V31.5H79.8707V30.2898H79.8026C79.6624 30.5625 79.4749 30.803 79.2401 31.0114C79.0052 31.2159 78.723 31.3769 78.3935 31.4943C78.0639 31.608 77.6832 31.6648 77.2514 31.6648ZM77.9446 29.9943C78.3007 29.9943 78.6151 29.9242 78.8878 29.7841C79.1605 29.6402 79.3745 29.447 79.5298 29.2045C79.6851 28.9621 79.7628 28.6875 79.7628 28.3807V27.4545C79.687 27.5038 79.5829 27.5492 79.4503 27.5909C79.3215 27.6288 79.1757 27.6648 79.0128 27.6989C78.8499 27.7292 78.687 27.7576 78.5241 27.7841C78.3613 27.8068 78.2135 27.8277 78.081 27.8466C77.7969 27.8883 77.5488 27.9545 77.3366 28.0455C77.1245 28.1364 76.9598 28.2595 76.8423 28.4148C76.7249 28.5663 76.6662 28.7557 76.6662 28.983C76.6662 29.3125 76.7855 29.5644 77.0241 29.7386C77.2666 29.9091 77.5734 29.9943 77.9446 29.9943ZM86.4645 19.8636V31.5H84.044V19.8636H86.4645ZM94 27.7841V22.7727H96.4205V31.5H94.0966V29.9148H94.0057C93.8087 30.4261 93.4811 30.8371 93.0227 31.1477C92.5682 31.4583 92.0133 31.6136 91.358 31.6136C90.7746 31.6136 90.2614 31.4811 89.8182 31.2159C89.375 30.9508 89.0284 30.5739 88.7784 30.0852C88.5322 29.5966 88.4072 29.0114 88.4034 28.3295V22.7727H90.8239V27.8977C90.8277 28.4129 90.9659 28.8201 91.2386 29.1193C91.5114 29.4186 91.8769 29.5682 92.3352 29.5682C92.6269 29.5682 92.8996 29.5019 93.1534 29.3693C93.4072 29.233 93.6117 29.0322 93.767 28.767C93.9261 28.5019 94.0038 28.1742 94 27.7841ZM102.334 31.6705C101.436 31.6705 100.663 31.4886 100.016 31.125C99.3717 30.7576 98.8755 30.2386 98.527 29.5682C98.1785 28.8939 98.0043 28.0966 98.0043 27.1761C98.0043 26.2784 98.1785 25.4905 98.527 24.8125C98.8755 24.1345 99.366 23.6061 99.9986 23.2273C100.635 22.8485 101.381 22.6591 102.237 22.6591C102.813 22.6591 103.349 22.7519 103.845 22.9375C104.345 23.1193 104.781 23.3939 105.152 23.7614C105.527 24.1288 105.819 24.5909 106.027 25.1477C106.235 25.7008 106.339 26.3485 106.339 27.0909V27.7557H98.9702V26.2557H104.061C104.061 25.9072 103.985 25.5985 103.834 25.3295C103.682 25.0606 103.472 24.8504 103.203 24.6989C102.938 24.5436 102.629 24.4659 102.277 24.4659C101.91 24.4659 101.584 24.5511 101.3 24.7216C101.019 24.8883 100.8 25.1136 100.641 25.3977C100.482 25.678 100.4 25.9905 100.396 26.3352V27.7614C100.396 28.1932 100.476 28.5663 100.635 28.8807C100.798 29.1951 101.027 29.4375 101.322 29.608C101.618 29.7784 101.968 29.8636 102.374 29.8636C102.643 29.8636 102.889 29.8258 103.112 29.75C103.336 29.6742 103.527 29.5606 103.686 29.4091C103.845 29.2576 103.966 29.072 104.05 28.8523L106.288 29C106.175 29.5379 105.942 30.0076 105.589 30.4091C105.241 30.8068 104.79 31.1174 104.237 31.3409C103.688 31.5606 103.054 31.6705 102.334 31.6705ZM111.668 31.5V19.8636H114.128V29.4716H119.116V31.5H111.668ZM124.643 31.6705C123.761 31.6705 122.998 31.483 122.354 31.108C121.714 30.7292 121.219 30.2027 120.871 29.5284C120.522 28.8504 120.348 28.0644 120.348 27.1705C120.348 26.2689 120.522 25.4811 120.871 24.8068C121.219 24.1288 121.714 23.6023 122.354 23.2273C122.998 22.8485 123.761 22.6591 124.643 22.6591C125.526 22.6591 126.287 22.8485 126.928 23.2273C127.571 23.6023 128.068 24.1288 128.416 24.8068C128.765 25.4811 128.939 26.2689 128.939 27.1705C128.939 28.0644 128.765 28.8504 128.416 29.5284C128.068 30.2027 127.571 30.7292 126.928 31.108C126.287 31.483 125.526 31.6705 124.643 31.6705ZM124.655 29.7955C125.056 29.7955 125.392 29.6818 125.661 29.4545C125.929 29.2235 126.132 28.9091 126.268 28.5114C126.409 28.1136 126.479 27.661 126.479 27.1534C126.479 26.6458 126.409 26.1932 126.268 25.7955C126.132 25.3977 125.929 25.0833 125.661 24.8523C125.392 24.6212 125.056 24.5057 124.655 24.5057C124.25 24.5057 123.909 24.6212 123.632 24.8523C123.359 25.0833 123.153 25.3977 123.013 25.7955C122.876 26.1932 122.808 26.6458 122.808 27.1534C122.808 27.661 122.876 28.1136 123.013 28.5114C123.153 28.9091 123.359 29.2235 123.632 29.4545C123.909 29.6818 124.25 29.7955 124.655 29.7955ZM134.456 31.6705C133.562 31.6705 132.793 31.4811 132.149 31.1023C131.509 30.7197 131.017 30.1894 130.672 29.5114C130.331 28.8333 130.161 28.053 130.161 27.1705C130.161 26.2765 130.333 25.4924 130.678 24.8182C131.026 24.1402 131.52 23.6117 132.161 23.233C132.801 22.8504 133.562 22.6591 134.445 22.6591C135.206 22.6591 135.873 22.7973 136.445 23.0739C137.017 23.3504 137.469 23.7386 137.803 24.2386C138.136 24.7386 138.32 25.3258 138.354 26H136.07C136.005 25.5644 135.835 25.214 135.558 24.9489C135.286 24.6799 134.928 24.5455 134.484 24.5455C134.109 24.5455 133.782 24.6477 133.501 24.8523C133.225 25.053 133.009 25.3466 132.854 25.733C132.698 26.1193 132.621 26.5871 132.621 27.1364C132.621 27.6932 132.696 28.1667 132.848 28.5568C133.003 28.947 133.221 29.2443 133.501 29.4489C133.782 29.6534 134.109 29.7557 134.484 29.7557C134.761 29.7557 135.009 29.6989 135.229 29.5852C135.452 29.4716 135.636 29.3068 135.78 29.0909C135.928 28.8712 136.024 28.608 136.07 28.3011H138.354C138.316 28.9678 138.134 29.5549 137.808 30.0625C137.486 30.5663 137.041 30.9602 136.473 31.2443C135.905 31.5284 135.232 31.6705 134.456 31.6705ZM142.097 28.9886L142.102 26.0852H142.455L145.25 22.7727H148.028L144.273 27.1591H143.699L142.097 28.9886ZM139.903 31.5V19.8636H142.324V31.5H139.903ZM145.358 31.5L142.79 27.6989L144.403 25.9886L148.193 31.5H145.358ZM152.834 31.6705C151.936 31.6705 151.163 31.4886 150.516 31.125C149.872 30.7576 149.375 30.2386 149.027 29.5682C148.679 28.8939 148.504 28.0966 148.504 27.1761C148.504 26.2784 148.679 25.4905 149.027 24.8125C149.375 24.1345 149.866 23.6061 150.499 23.2273C151.135 22.8485 151.881 22.6591 152.737 22.6591C153.313 22.6591 153.849 22.7519 154.345 22.9375C154.845 23.1193 155.281 23.3939 155.652 23.7614C156.027 24.1288 156.319 24.5909 156.527 25.1477C156.735 25.7008 156.839 26.3485 156.839 27.0909V27.7557H149.47V26.2557H154.561C154.561 25.9072 154.485 25.5985 154.334 25.3295C154.182 25.0606 153.972 24.8504 153.703 24.6989C153.438 24.5436 153.129 24.4659 152.777 24.4659C152.41 24.4659 152.084 24.5511 151.8 24.7216C151.519 24.8883 151.3 25.1136 151.141 25.3977C150.982 25.678 150.9 25.9905 150.896 26.3352V27.7614C150.896 28.1932 150.976 28.5663 151.135 28.8807C151.298 29.1951 151.527 29.4375 151.822 29.608C152.118 29.7784 152.468 29.8636 152.874 29.8636C153.143 29.8636 153.389 29.8258 153.612 29.75C153.836 29.6742 154.027 29.5606 154.186 29.4091C154.345 29.2576 154.466 29.072 154.55 28.8523L156.788 29C156.675 29.5379 156.442 30.0076 156.089 30.4091C155.741 30.8068 155.29 31.1174 154.737 31.3409C154.188 31.5606 153.554 31.6705 152.834 31.6705ZM161.635 31.642C160.972 31.642 160.372 31.4716 159.834 31.1307C159.3 30.786 158.875 30.2803 158.561 29.6136C158.25 28.9432 158.095 28.1212 158.095 27.1477C158.095 26.1477 158.256 25.3163 158.578 24.6534C158.9 23.9867 159.328 23.4886 159.862 23.1591C160.4 22.8258 160.989 22.6591 161.629 22.6591C162.118 22.6591 162.525 22.7424 162.851 22.9091C163.18 23.072 163.446 23.2765 163.646 23.5227C163.851 23.7652 164.006 24.0038 164.112 24.2386H164.186V19.8636H166.601V31.5H164.214V30.1023H164.112C163.999 30.3447 163.838 30.5852 163.629 30.8239C163.425 31.0587 163.158 31.2538 162.828 31.4091C162.502 31.5644 162.105 31.642 161.635 31.642ZM162.402 29.7159C162.792 29.7159 163.122 29.6098 163.391 29.3977C163.663 29.1818 163.872 28.8807 164.016 28.4943C164.163 28.108 164.237 27.6553 164.237 27.1364C164.237 26.6174 164.165 26.1667 164.021 25.7841C163.877 25.4015 163.669 25.1061 163.396 24.8977C163.124 24.6894 162.792 24.5852 162.402 24.5852C162.004 24.5852 161.669 24.6932 161.396 24.9091C161.124 25.125 160.917 25.4242 160.777 25.8068C160.637 26.1894 160.567 26.6326 160.567 27.1364C160.567 27.6439 160.637 28.0928 160.777 28.483C160.921 28.8693 161.127 29.1723 161.396 29.392C161.669 29.608 162.004 29.7159 162.402 29.7159Z" fill="#C2C2C2"/>
<g clip-path="url(#clip0_72_8282)">
<path d="M309.41 22.59L314 27.17L318.59 22.59L320 24L314 30L308 24L309.41 22.59Z" fill="#C2C2C2"/>
</g>
<defs>
<clipPath id="clip0_72_8282">
<rect width="24" height="24" fill="white" transform="translate(302 14)"/>
</clipPath>
</defs>
</svg>
